<?xml version="1.0" standalone="no"?>
<svg xmlns:xlink="http://www.w3.org/1999/xlink" id="wave" style="transform:rotate(0deg); transition: 0.3s" viewBox="0 0 1440 320" version="1.1" xmlns="http://www.w3.org/2000/svg"><defs><linearGradient id="sw-gradient-0" x1="0" x2="0" y1="1" y2="0"><stop stop-color="rgba(62, 151.031, 243, 1)" offset="0%"/><stop stop-color="rgba(11, 255, 213.673, 1)" offset="100%"/></linearGradient></defs><path style="transform:translate(0, 0px); opacity:1" fill="url(#sw-gradient-0)" d="M0,96L18.5,101.3C36.9,107,74,117,111,122.7C147.7,128,185,128,222,138.7C258.5,149,295,171,332,186.7C369.2,203,406,213,443,192C480,171,517,117,554,90.7C590.8,64,628,64,665,64C701.5,64,738,64,775,90.7C812.3,117,849,171,886,165.3C923.1,160,960,96,997,80C1033.8,64,1071,96,1108,128C1144.6,160,1182,192,1218,192C1255.4,192,1292,160,1329,128C1366.2,96,1403,64,1440,58.7C1476.9,53,1514,75,1551,69.3C1587.7,64,1625,32,1662,48C1698.5,64,1735,128,1772,160C1809.2,192,1846,192,1883,197.3C1920,203,1957,213,1994,229.3C2030.8,245,2068,267,2105,266.7C2141.5,267,2178,245,2215,240C2252.3,235,2289,245,2326,224C2363.1,203,2400,149,2437,122.7C2473.8,96,2511,96,2548,106.7C2584.6,117,2622,139,2640,149.3L2658.5,160L2658.5,320L2640,320C2621.5,320,2585,320,2548,320C2510.8,320,2474,320,2437,320C2400,320,2363,320,2326,320C2289.2,320,2252,320,2215,320C2178.5,320,2142,320,2105,320C2067.7,320,2031,320,1994,320C1956.9,320,1920,320,1883,320C1846.2,320,1809,320,1772,320C1735.4,320,1698,320,1662,320C1624.6,320,1588,320,1551,320C1513.8,320,1477,320,1440,320C1403.1,320,1366,320,1329,320C1292.3,320,1255,320,1218,320C1181.5,320,1145,320,1108,320C1070.8,320,1034,320,997,320C960,320,923,320,886,320C849.2,320,812,320,775,320C738.5,320,702,320,665,320C627.7,320,591,320,554,320C516.9,320,480,320,443,320C406.2,320,369,320,332,320C295.4,320,258,320,222,320C184.6,320,148,320,111,320C73.8,320,37,320,18,320L0,320Z"/></svg>